# xmcd
#
# Track frame offsets:
#	180
#	13839
#	27573
#	42275
#	55248
#	70204
#	85200
#	98634
#	138246
#	156932
#	172190
#	187207
#	202181
#	216201
#	230024
#	245026
#	259528
#	278973
#	292895
#	306211
#
# Disc length: 4257 seconds
#
# Revision: 1
# Processed by: cddbd v1.5.2PL0 Copyright (c) Steve Scherf et al.
# Submitted via: audiograbber 1.83.01
#
DISCID=34109f14
DTITLE=Marek Weber - L`Enchanteur
DYEAR=1900
DGENRE=
TTITLE0=Heinzelmännchens Wachparade
TTITLE1=Aschenbrödels Brautzug
TTITLE2=Japanischer Laternentanz
TTITLE3=Chinesische Strassenparade
TTITLE4=The coolies of Sumatra
TTITLE5=Kirchweih in Tirol
TTITLE6=Frühlingslust
TTITLE7=Saschinka Russische Tänze
TTITLE8=Donauwellen Walzer
TTITLE9=Wiener Zugvögel
TTITLE10=Marienklänge
TTITLE11=Soiree d ete
TTITLE12=Schwäbischer Bauernwalzer
TTITLE13=Tesoro Mio
TTITLE14=Liebesträume nach dem Ball
TTITLE15=Verschmähte Liebe
TTITLE16=Suite de valses
TTITLE17=Marsch aus dem Film Romy
TTITLE18=Cest pas comme ca
TTITLE19=Für dich Rio Rita
EXTD=
EXTT0=
EXTT1=
EXTT2=
EXTT3=
EXTT4=
EXTT5=
EXTT6=
EXTT7=
EXTT8=
EXTT9=
EXTT10=
EXTT11=
EXTT12=
EXTT13=
EXTT14=
EXTT15=
EXTT16=
EXTT17=
EXTT18=
EXTT19=
PLAYORDER=
